999
DXF from OpenSCAD
  0
SECTION
  2
HEADER
  9
$ACADVER
  1
AC1006
  9
$INSBASE
 10
0.0
 20
0.0
 30
0.0
  9
$EXTMIN
 10
-11.5
 20
-48.229
  9
$EXTMAX
 10
127.637
 20
66
  9
$LINMIN
 10
-11.5
 20
-48.229
  9
$LINMAX
 10
127.637
 20
66
  0
ENDSEC
  0
SECTION
  2
TABLES
  0
TABLE
  2
LTYPE
 70
1
  0
LTYPE
  2
CONTINUOUS
 70
64
  3
Solid line
 72
65
 73
0
 40
0.000000
  0
ENDTAB
  0
TABLE
  2
LAYER
 70
6
  0
LAYER
  2
0
 70
64
 62
7
  6
CONTINUOUS
  0
ENDTAB
  0
TABLE
  2
STYLE
 70
0
  0
ENDTAB
  0
ENDSEC
  0
SECTION
  2
BLOCKS
  0
ENDSEC
  0
SECTION
  2
ENTITIES
  0
LWPOLYLINE
100
AcDbEntity
  8
0
100
AcDbPolyline
 90
678
 70
1
 10
113.195
 20
-48.2151
 10
113.528
 20
-48.1331
 10
113.852
 20
-48.0188
 10
114.163
 20
-47.8734
 10
114.459
 20
-47.6981
 10
114.735
 20
-47.4947
 10
114.991
 20
-47.2652
 10
115.223
 20
-47.0118
 10
115.436
 20
-46.727
 10
127.032
 20
-29.5344
 10
127.216
 20
-29.2302
 10
127.365
 20
-28.9204
 10
127.482
 20
-28.5975
 10
127.567
 20
-28.2648
 10
127.618
 20
-27.9253
 10
127.637
 20
-27.5824
 10
127.621
 20
-27.2393
 10
127.573
 20
-26.8994
 10
127.491
 20
-26.5659
 10
127.376
 20
-26.2421
 10
127.231
 20
-25.931
 10
127.056
 20
-25.6357
 10
126.852
 20
-25.3589
 10
126.623
 20
-25.1035
 10
126.369
 20
-24.8717
 10
126.084
 20
-24.6586
 10
109.81
 20
-13.6814
 10
109.496
 20
-13.4913
 10
109.485
 20
-13.4855
 10
108.932
 20
-13.1916
 10
108.746
 20
-13.0988
 10
108.716
 20
-13.0853
 10
108.547
 20
-13.0122
 10
94.206
 20
-7.21785
 10
94.1835
 20
-7.2081
 10
93.382
 20
-6.83758
 10
93.3386
 20
-6.81483
 10
92.6621
 20
-6.41735
 10
92.621
 20
-6.39044
 10
91.9868
 20
-5.92857
 10
91.9486
 20
-5.89777
 10
91.3627
 20
-5.37595
 10
91.3277
 20
-5.34156
 10
90.7957
 20
-4.76483
 10
90.7642
 20
-4.72717
 10
90.2914
 20
-4.10107
 10
90.2637
 20
-4.06051
 10
89.8545
 20
-3.39107
 10
89.831
 20
-3.348
 10
89.4894
 20
-2.64168
 10
89.4702
 20
-2.59651
 10
89.1994
 20
-1.8601
 10
89.1848
 20
-1.81327
 10
88.9875
 20
-1.05387
 10
88.9775
 20
-1.00583
 10
88.8556
 20
-0.230747
 10
88.8504
 20
-0.18196
 10
88.805
 20
0.601339
 10
88.8046
 20
0.650405
 10
88.8363
 20
1.43438
 10
88.8407
 20
1.48325
 10
88.949
 20
2.26034
 10
88.9582
 20
2.30855
 10
89.1422
 20
3.07128
 10
89.156
 20
3.11835
 10
89.4139
 20
3.85938
 10
89.4322
 20
3.90487
 10
89.7615
 20
4.61705
 10
89.7843
 20
4.66052
 10
90.1817
 20
5.337
 10
90.2086
 20
5.37803
 10
90.6705
 20
6.01229
 10
90.7013
 20
6.05049
 10
91.2231
 20
6.63643
 10
91.2575
 20
6.67142
 10
91.8343
 20
7.20339
 10
91.8719
 20
7.23485
 10
92.498
 20
7.70772
 10
92.5386
 20
7.73534
 10
93.208
 20
8.14456
 10
93.2511
 20
8.16807
 10
93.9574
 20
8.50971
 10
94.0026
 20
8.52888
 10
94.739
 20
8.79965
 10
94.7858
 20
8.8143
 10
95.5452
 20
9.01158
 10
95.5933
 20
9.02157
 10
96.3683
 20
9.14346
 10
96.4171
 20
9.1487
 10
97.289
 20
9.19916
 10
97.3179
 20
9.2
 10
116.088
 20
9.2
 10
116.443
 20
9.21745
 10
116.501
 20
9.2261
 10
116.505
 20
9.30782
 10
116.521
 20
9.4146
 10
116.547
 20
9.51931
 10
116.584
 20
9.62095
 10
116.63
 20
9.71854
 10
116.685
 20
9.81113
 10
116.75
 20
9.89783
 10
116.822
 20
9.97782
 10
116.902
 20
10.0503
 10
116.989
 20
10.1146
 10
117.081
 20
10.1701
 10
117.179
 20
10.2163
 10
117.281
 20
10.2526
 10
117.385
 20
10.2789
 10
117.492
 20
10.2947
 10
117.6
 20
10.3
 10
117.708
 20
10.2947
 10
117.815
 20
10.2789
 10
117.919
 20
10.2526
 10
118.021
 20
10.2163
 10
118.119
 20
10.1701
 10
118.211
 20
10.1146
 10
118.298
 20
10.0503
 10
118.339
 20
10.0126
 10
118.574
 20
10.2256
 10
118.805
 20
10.48
 10
119.01
 20
10.7558
 10
119.186
 20
11.0504
 10
119.333
 20
11.3608
 10
119.449
 20
11.6842
 10
119.532
 20
12.0173
 10
119.583
 20
12.357
 10
119.6
 20
12.7123
 10
119.6
 20
56.9877
 10
119.583
 20
57.343
 10
119.532
 20
57.6827
 10
119.449
 20
58.0158
 10
119.333
 20
58.3392
 10
119.186
 20
58.6496
 10
119.01
 20
58.9442
 10
118.805
 20
59.22
 10
118.574
 20
59.4744
 10
118.32
 20
59.7051
 10
118.044
 20
59.9096
 10
118.032
 20
59.9172
 10
118.015
 20
59.8889
 10
117.95
 20
59.8022
 10
117.878
 20
59.7222
 10
117.798
 20
59.6497
 10
117.711
 20
59.5854
 10
117.619
 20
59.5299
 10
117.521
 20
59.4837
 10
117.419
 20
59.4474
 10
117.315
 20
59.4211
 10
117.208
 20
59.4053
 10
117.1
 20
59.4
 10
116.992
 20
59.4053
 10
116.885
 20
59.4211
 10
116.781
 20
59.4474
 10
116.679
 20
59.4837
 10
116.581
 20
59.5299
 10
116.489
 20
59.5854
 10
116.402
 20
59.6497
 10
116.322
 20
59.7222
 10
116.25
 20
59.8022
 10
116.185
 20
59.8889
 10
116.13
 20
59.9815
 10
116.084
 20
60.079
 10
116.047
 20
60.1807
 10
116.021
 20
60.2854
 10
116.005
 20
60.3922
 10
116
 20
60.5
 10
88.3259
 20
60.5
 10
87.9706
 20
60.4825
 10
87.6309
 20
60.4322
 10
87.2978
 20
60.3487
 10
86.9745
 20
60.233
 10
86.664
 20
60.0862
 10
86.3695
 20
59.9096
 10
86.0937
 20
59.7051
 10
85.8301
 20
59.4662
 10
85.6863
 20
59.3224
 10
85.65
 20
59.2895
 10
85.0434
 20
58.7917
 10
85.004
 20
58.7625
 10
84.3517
 20
58.3266
 10
84.3096
 20
58.3013
 10
83.6176
 20
57.9315
 10
83.5732
 20
57.9105
 10
82.8484
 20
57.6102
 10
82.8022
 20
57.5937
 10
82.0513
 20
57.366
 10
82.0037
 20
57.354
 10
81.2342
 20
57.201
 10
81.1857
 20
57.1938
 10
80.3559
 20
57.112
 10
80.3192
 20
57.1098
 10
79.9267
 20
57.1002
 10
79.9144
 20
57.1
 10
77.3
 20
57.1
 10
77.2947
 20
56.9922
 10
77.2789
 20
56.8854
 10
77.2526
 20
56.7807
 10
77.2163
 20
56.679
 10
77.1701
 20
56.5815
 10
77.1146
 20
56.4889
 10
77.0503
 20
56.4022
 10
76.9778
 20
56.3222
 10
76.8978
 20
56.2497
 10
76.8111
 20
56.1854
 10
76.7185
 20
56.1299
 10
76.621
 20
56.0837
 10
76.5193
 20
56.0474
 10
76.4146
 20
56.0211
 10
76.3078
 20
56.0053
 10
76.2
 20
56
 10
76.0922
 20
56.0053
 10
75.9854
 20
56.0211
 10
75.8807
 20
56.0474
 10
75.779
 20
56.0837
 10
75.6815
 20
56.1299
 10
75.5889
 20
56.1854
 10
75.5022
 20
56.2497
 10
75.4222
 20
56.3222
 10
75.3497
 20
56.4022
 10
75.2854
 20
56.4889
 10
75.2299
 20
56.5815
 10
75.1837
 20
56.679
 10
75.1474
 20
56.7807
 10
75.1211
 20
56.8854
 10
75.1053
 20
56.9922
 10
75.1
 20
57.1
 10
75.0472
 20
57.1
 10
75.0227
 20
57.1006
 10
74.1408
 20
57.1439
 10
74.092
 20
57.1487
 10
73.3159
 20
57.2639
 10
73.2677
 20
57.2734
 10
72.5067
 20
57.4641
 10
72.4597
 20
57.4783
 10
71.721
 20
57.7426
 10
71.6756
 20
57.7614
 10
70.9663
 20
58.0969
 10
70.9231
 20
58.12
 10
70.2501
 20
58.5234
 10
70.2093
 20
58.5507
 10
69.733
 20
58.9039
 10
69.4372
 20
59.1015
 10
69.1343
 20
59.2634
 10
68.8171
 20
59.3948
 10
68.4884
 20
59.4945
 10
68.1516
 20
59.5615
 10
67.8037
 20
59.5958
 10
67.632
 20
59.6
 10
58.0346
 20
59.6
 10
58.0101
 20
59.6006
 10
57.1282
 20
59.6439
 10
57.0794
 20
59.6487
 10
56.3033
 20
59.7639
 10
56.2552
 20
59.7734
 10
55.4941
 20
59.9641
 10
55.4471
 20
59.9783
 10
54.7084
 20
60.2426
 10
54.663
 20
60.2614
 10
53.9538
 20
60.5969
 10
53.9105
 20
60.62
 10
53.2375
 20
61.0234
 10
53.1967
 20
61.0507
 10
52.5665
 20
61.518
 10
52.5286
 20
61.5492
 10
51.9472
 20
62.0761
 10
51.9125
 20
62.1108
 10
51.3856
 20
62.6921
 10
51.3545
 20
62.7301
 10
50.8871
 20
63.3603
 10
50.8598
 20
63.4011
 10
50.3877
 20
64.1887
 10
50.3756
 20
64.2101
 10
50.3281
 20
64.299
 10
50.1373
 20
64.5846
 10
49.9194
 20
64.8501
 10
49.6766
 20
65.0929
 10
49.4111
 20
65.3107
 10
49.1256
 20
65.5015
 10
48.8227
 20
65.6634
 10
48.5055
 20
65.7948
 10
48.1768
 20
65.8945
 10
47.84
 20
65.9615
 10
47.4921
 20
65.9958
 10
47.3204
 20
66
 10
39.2
 20
66
 10
39.1947
 20
65.8922
 10
39.1789
 20
65.7854
 10
39.1526
 20
65.6807
 10
39.1163
 20
65.579
 10
39.0701
 20
65.4815
 10
39.0146
 20
65.3889
 10
38.9503
 20
65.3022
 10
38.8778
 20
65.2222
 10
38.7978
 20
65.1497
 10
38.7111
 20
65.0854
 10
38.6185
 20
65.0299
 10
38.521
 20
64.9837
 10
38.4193
 20
64.9474
 10
38.3146
 20
64.9211
 10
38.2078
 20
64.9053
 10
38.1
 20
64.9
 10
37.9922
 20
64.9053
 10
37.8854
 20
64.9211
 10
37.7807
 20
64.9474
 10
37.679
 20
64.9837
 10
37.5815
 20
65.0299
 10
37.4889
 20
65.0854
 10
37.4022
 20
65.1497
 10
37.3222
 20
65.2222
 10
37.2497
 20
65.3022
 10
37.1854
 20
65.3889
 10
37.1299
 20
65.4815
 10
37.0837
 20
65.579
 10
37.0474
 20
65.6807
 10
37.0211
 20
65.7854
 10
37.0053
 20
65.8922
 10
37
 20
66
 10
28.8728
 20
66
 10
28.5176
 20
65.9825
 10
28.1779
 20
65.9322
 10
27.8447
 20
65.8487
 10
27.5214
 20
65.733
 10
27.211
 20
65.5862
 10
26.9164
 20
65.4096
 10
26.6406
 20
65.2051
 10
26.3861
 20
64.9744
 10
26.1555
 20
64.72
 10
25.9509
 20
64.4442
 10
25.7681
 20
64.1391
 10
25.5622
 20
63.754
 10
25.537
 20
63.7119
 10
25.1011
 20
63.0595
 10
25.0718
 20
63.0201
 10
24.5741
 20
62.4136
 10
24.5411
 20
62.3772
 10
23.9863
 20
61.8224
 10
23.95
 20
61.7895
 10
23.3435
 20
61.2917
 10
23.3041
 20
61.2625
 10
22.6517
 20
60.8266
 10
22.6096
 20
60.8013
 10
21.9176
 20
60.4315
 10
21.8733
 20
60.4105
 10
21.1484
 20
60.1102
 10
21.1022
 20
60.0937
 10
20.3514
 20
59.866
 10
20.3038
 20
59.854
 10
19.5342
 20
59.701
 10
19.4857
 20
59.6938
 10
18.6559
 20
59.612
 10
18.6192
 20
59.6098
 10
18.2267
 20
59.6002
 10
18.2145
 20
59.6
 10
10.8823
 20
59.6
 10
10.527
 20
59.5825
 10
10.1873
 20
59.5322
 10
9.8542
 20
59.4487
 10
9.53086
 20
59.333
 10
9.22041
 20
59.1862
 10
8.92586
 20
59.0096
 10
8.65002
 20
58.8051
 10
8.39557
 20
58.5744
 10
8.16495
 20
58.32
 10
7.96038
 20
58.0442
 10
7.78383
 20
57.7496
 10
7.637
 20
57.4392
 10
7.5213
 20
57.1158
 10
7.43637
 20
56.7767
 10
7.407
 20
56.6075
 10
7.38614
 20
56.4669
 10
7.37657
 20
56.4187
 10
7.18592
 20
55.6576
 10
7.17168
 20
55.6107
 10
6.90735
 20
54.8719
 10
6.88857
 20
54.8266
 10
6.55311
 20
54.1173
 10
6.52998
 20
54.074
 10
6.12661
 20
53.4011
 10
6.09935
 20
53.3603
 10
5.63196
 20
52.7301
 10
5.60083
 20
52.6921
 10
5.07392
 20
52.1108
 10
5.03922
 20
52.0761
 10
4.45787
 20
51.5492
 10
4.41994
 20
51.518
 10
3.78973
 20
51.0507
 10
3.74893
 20
51.0234
 10
3.07595
 20
50.62
 10
3.03268
 20
50.5969
 10
2.3234
 20
50.2614
 10
2.27807
 20
50.2426
 10
1.53932
 20
49.9783
 10
1.49237
 20
49.9641
 10
0.731272
 20
49.7734
 10
0.683147
 20
49.7639
 10
-0.0929705
 20
49.6487
 10
-0.141802
 20
49.6439
 10
-1.02366
 20
49.6006
 10
-1.04819
 20
49.6
 10
-7.98773
 20
49.6
 10
-8.343
 20
49.5825
 10
-8.6827
 20
49.5322
 10
-9.01582
 20
49.4487
 10
-9.33916
 20
49.333
 10
-9.6496
 20
49.1862
 10
-9.94416
 20
49.0096
 10
-10.22
 20
48.8051
 10
-10.4744
 20
48.5744
 10
-10.7051
 20
48.32
 10
-10.9096
 20
48.0442
 10
-11.0862
 20
47.7496
 10
-11.233
 20
47.4392
 10
-11.3487
 20
47.1158
 10
-11.4322
 20
46.7827
 10
-11.4825
 20
46.443
 10
-11.5
 20
46.0877
 10
-11.5
 20
23.1
 10
-11.3922
 20
23.0947
 10
-11.2854
 20
23.0789
 10
-11.1807
 20
23.0526
 10
-11.079
 20
23.0163
 10
-10.9815
 20
22.9701
 10
-10.8889
 20
22.9146
 10
-10.8022
 20
22.8503
 10
-10.7222
 20
22.7778
 10
-10.6497
 20
22.6978
 10
-10.5854
 20
22.6111
 10
-10.5299
 20
22.5185
 10
-10.4837
 20
22.421
 10
-10.4474
 20
22.3193
 10
-10.4211
 20
22.2146
 10
-10.4053
 20
22.1078
 10
-10.4
 20
22
 10
-10.4053
 20
21.8922
 10
-10.4211
 20
21.7854
 10
-10.4474
 20
21.6807
 10
-10.4837
 20
21.579
 10
-10.5299
 20
21.4815
 10
-10.5854
 20
21.3889
 10
-10.6497
 20
21.3022
 10
-10.7222
 20
21.2222
 10
-10.8022
 20
21.1497
 10
-10.8889
 20
21.0854
 10
-10.9815
 20
21.0299
 10
-11.079
 20
20.9837
 10
-11.1807
 20
20.9474
 10
-11.2854
 20
20.9211
 10
-11.3922
 20
20.9053
 10
-11.5
 20
20.9
 10
-11.5
 20
-7.98773
 10
-11.4825
 20
-8.343
 10
-11.4322
 20
-8.6827
 10
-11.3487
 20
-9.01582
 10
-11.233
 20
-9.33916
 10
-11.0862
 20
-9.6496
 10
-10.9096
 20
-9.94416
 10
-10.7051
 20
-10.22
 10
-10.4744
 20
-10.4744
 10
-10.22
 20
-10.7051
 10
-9.94416
 20
-10.9096
 10
-9.6496
 20
-11.0862
 10
-9.33916
 20
-11.233
 10
-9.01582
 20
-11.3487
 10
-8.6827
 20
-11.4322
 10
-8.343
 20
-11.4825
 10
-7.98773
 20
-11.5
 10
-1.1
 20
-11.5
 10
-1.0947
 20
-11.3922
 10
-1.07886
 20
-11.2854
 10
-1.05263
 20
-11.1807
 10
-1.01627
 20
-11.079
 10
-0.970113
 20
-10.9815
 10
-0.914617
 20
-10.8889
 10
-0.850311
 20
-10.8022
 10
-0.777817
 20
-10.7222
 10
-0.697833
 20
-10.6497
 10
-0.611127
 20
-10.5854
 10
-0.518536
 20
-10.5299
 10
-0.420952
 20
-10.4837
 10
-0.319313
 20
-10.4474
 10
-0.214599
 20
-10.4211
 10
-0.107819
 20
-10.4053
 10
0
 20
-10.4
 10
0.107819
 20
-10.4053
 10
0.214599
 20
-10.4211
 10
0.319313
 20
-10.4474
 10
0.420952
 20
-10.4837
 10
0.518536
 20
-10.5299
 10
0.611127
 20
-10.5854
 10
0.697833
 20
-10.6497
 10
0.777817
 20
-10.7222
 10
0.850311
 20
-10.8022
 10
0.914617
 20
-10.8889
 10
0.970113
 20
-10.9815
 10
1.01627
 20
-11.079
 10
1.05263
 20
-11.1807
 10
1.07886
 20
-11.2854
 10
1.0947
 20
-11.3922
 10
1.1
 20
-11.5
 10
1.0947
 20
-11.6078
 10
1.07886
 20
-11.7146
 10
1.06804
 20
-11.7578
 10
1.49237
 20
-11.8641
 10
1.53932
 20
-11.8783
 10
2.27807
 20
-12.1426
 10
2.3234
 20
-12.1614
 10
3.03268
 20
-12.4969
 10
3.07595
 20
-12.52
 10
3.74893
 20
-12.9234
 10
3.78973
 20
-12.9507
 10
4.41994
 20
-13.418
 10
4.45787
 20
-13.4492
 10
5.03922
 20
-13.9761
 10
5.07392
 20
-14.0108
 10
5.60083
 20
-14.5921
 10
5.63196
 20
-14.6301
 10
6.09935
 20
-15.2603
 10
6.12661
 20
-15.3011
 10
6.52998
 20
-15.974
 10
6.55311
 20
-16.0173
 10
6.88857
 20
-16.7266
 10
6.90735
 20
-16.7719
 10
7.17168
 20
-17.5107
 10
7.18592
 20
-17.5576
 10
7.26881
 20
-17.8885
 10
7.37206
 20
-18.2289
 10
7.50348
 20
-18.5462
 10
7.66536
 20
-18.849
 10
7.85616
 20
-19.1346
 10
8.07402
 20
-19.4001
 10
8.31685
 20
-19.6429
 10
8.58231
 20
-19.8607
 10
8.86785
 20
-20.0515
 10
9.17071
 20
-20.2134
 10
9.48799
 20
-20.3448
 10
9.81661
 20
-20.4445
 10
10.1534
 20
-20.5115
 10
10.5013
 20
-20.5458
 10
10.673
 20
-20.55
 10
28.2772
 20
-20.55
 10
28.6324
 20
-20.5325
 10
28.9721
 20
-20.4822
 10
29.3053
 20
-20.3987
 10
29.6286
 20
-20.283
 10
29.939
 20
-20.1362
 10
30.2336
 20
-19.9596
 10
30.5094
 20
-19.7551
 10
30.7639
 20
-19.5244
 10
30.9945
 20
-19.27
 10
31.1991
 20
-18.9942
 10
31.3819
 20
-18.6891
 10
31.5878
 20
-18.304
 10
31.613
 20
-18.2619
 10
32.0489
 20
-17.6095
 10
32.0782
 20
-17.5701
 10
32.5759
 20
-16.9636
 10
32.6089
 20
-16.9272
 10
33.1637
 20
-16.3724
 10
33.2
 20
-16.3395
 10
33.8065
 20
-15.8417
 10
33.8459
 20
-15.8125
 10
34.4983
 20
-15.3766
 10
34.5404
 20
-15.3513
 10
35.2324
 20
-14.9815
 10
35.2767
 20
-14.9605
 10
36.0016
 20
-14.6602
 10
36.0478
 20
-14.6437
 10
36.7986
 20
-14.416
 10
36.8462
 20
-14.404
 10
37.6158
 20
-14.251
 10
37.6643
 20
-14.2438
 10
38.4941
 20
-14.162
 10
38.5308
 20
-14.1598
 10
38.9233
 20
-14.1502
 10
38.9355
 20
-14.15
 10
49.8325
 20
-14.15
 10
49.8571
 20
-14.1506
 10
50.7389
 20
-14.1939
 10
50.7878
 20
-14.1987
 10
51.5639
 20
-14.3139
 10
51.612
 20
-14.3234
 10
52.3731
 20
-14.5141
 10
52.4201
 20
-14.5283
 10
53.1588
 20
-14.7926
 10
53.2041
 20
-14.8114
 10
53.9134
 20
-15.1469
 10
53.9567
 20
-15.17
 10
54.6297
 20
-15.5734
 10
54.6705
 20
-15.6007
 10
55.3007
 20
-16.068
 10
55.3386
 20
-16.0992
 10
55.92
 20
-16.6261
 10
55.9546
 20
-16.6608
 10
56.4816
 20
-17.2421
 10
56.5127
 20
-17.2801
 10
56.9801
 20
-17.9103
 10
57.0073
 20
-17.9511
 10
57.4107
 20
-18.624
 10
57.4338
 20
-18.6673
 10
57.7693
 20
-19.3766
 10
57.7881
 20
-19.4219
 10
58.0524
 20
-20.1607
 10
58.0667
 20
-20.2076
 10
58.2573
 20
-20.9687
 10
58.2669
 20
-21.0169
 10
58.382
 20
-21.793
 10
58.3868
 20
-21.8418
 10
58.4253
 20
-22.6255
 10
58.4253
 20
-22.6745
 10
58.3857
 20
-23.48
 10
58.3817
 20
-23.5235
 10
58.3378
 20
-23.8437
 10
58.3067
 20
-24.1981
 10
58.3105
 20
-24.5415
 10
58.3479
 20
-24.8829
 10
58.4185
 20
-25.2189
 10
58.5218
 20
-25.5464
 10
58.6567
 20
-25.8623
 10
58.8219
 20
-26.1633
 10
59.0158
 20
-26.4468
 10
59.2365
 20
-26.7099
 10
59.482
 20
-26.95
 10
59.7498
 20
-27.165
 10
60.0374
 20
-27.3526
 10
60.342
 20
-27.5112
 10
60.6607
 20
-27.6392
 10
60.995
 20
-27.7366
 10
61.2032
 20
-27.7798
 10
77.5878
 20
-30.6688
 10
77.6118
 20
-30.6737
 10
78.4728
 20
-30.8695
 10
78.52
 20
-30.8827
 10
79.3452
 20
-31.1578
 10
79.3713
 20
-31.1673
 10
79.4017
 20
-31.1794
 10
79.4047
 20
-31.1806
 10
95.197
 20
-37.5611
 10
95.2195
 20
-37.5708
 10
96.0209
 20
-37.9413
 10
96.0644
 20
-37.9641
 10
96.8143
 20
-38.4047
 10
96.8379
 20
-38.4195
 10
96.8651
 20
-38.4376
 10
96.8679
 20
-38.4394
 10
110.56
 20
-47.6748
 10
110.864
 20
-47.859
 10
110.943
 20
-47.8968
 10
110.947
 20
-47.8807
 10
110.984
 20
-47.779
 10
111.03
 20
-47.6815
 10
111.085
 20
-47.5889
 10
111.15
 20
-47.5022
 10
111.222
 20
-47.4222
 10
111.302
 20
-47.3497
 10
111.389
 20
-47.2854
 10
111.481
 20
-47.2299
 10
111.579
 20
-47.1837
 10
111.681
 20
-47.1474
 10
111.785
 20
-47.1211
 10
111.892
 20
-47.1053
 10
112
 20
-47.1
 10
112.108
 20
-47.1053
 10
112.215
 20
-47.1211
 10
112.319
 20
-47.1474
 10
112.421
 20
-47.1837
 10
112.519
 20
-47.2299
 10
112.611
 20
-47.2854
 10
112.698
 20
-47.3497
 10
112.778
 20
-47.4222
 10
112.85
 20
-47.5022
 10
112.915
 20
-47.5889
 10
112.97
 20
-47.6815
 10
113.016
 20
-47.779
 10
113.053
 20
-47.8807
 10
113.079
 20
-47.9854
 10
113.095
 20
-48.0922
 10
113.1
 20
-48.2
 10
113.099
 20
-48.229
  0
LWPOLYLINE
100
AcDbEntity
  8
0
100
AcDbPolyline
 90
4
 70
1
 10
90.5
 20
23.9
 10
90.5
 20
55.9
 10
112.5
 20
55.9
 10
112.5
 20
23.9
  0
LWPOLYLINE
100
AcDbEntity
  8
0
100
AcDbPolyline
 90
64
 70
1
 10
58.3922
 20
-5.4947
 10
58.2854
 20
-5.47886
 10
58.1807
 20
-5.45263
 10
58.079
 20
-5.41627
 10
57.9815
 20
-5.37011
 10
57.8889
 20
-5.31462
 10
57.8022
 20
-5.25031
 10
57.7222
 20
-5.17782
 10
57.6497
 20
-5.09783
 10
57.5854
 20
-5.01113
 10
57.5299
 20
-4.91854
 10
57.4837
 20
-4.82095
 10
57.4474
 20
-4.71931
 10
57.4211
 20
-4.6146
 10
57.4053
 20
-4.50782
 10
57.4
 20
-4.4
 10
57.4053
 20
-4.29218
 10
57.4211
 20
-4.1854
 10
57.4474
 20
-4.08069
 10
57.4837
 20
-3.97905
 10
57.5299
 20
-3.88146
 10
57.5854
 20
-3.78887
 10
57.6497
 20
-3.70217
 10
57.7222
 20
-3.62218
 10
57.8022
 20
-3.54969
 10
57.8889
 20
-3.48538
 10
57.9815
 20
-3.42989
 10
58.079
 20
-3.38373
 10
58.1807
 20
-3.34737
 10
58.2854
 20
-3.32114
 10
58.3922
 20
-3.3053
 10
58.5
 20
-3.3
 10
58.6078
 20
-3.3053
 10
58.7146
 20
-3.32114
 10
58.8193
 20
-3.34737
 10
58.921
 20
-3.38373
 10
59.0185
 20
-3.42989
 10
59.1111
 20
-3.48538
 10
59.1978
 20
-3.54969
 10
59.2778
 20
-3.62218
 10
59.3503
 20
-3.70217
 10
59.4146
 20
-3.78887
 10
59.4701
 20
-3.88146
 10
59.5163
 20
-3.97905
 10
59.5526
 20
-4.08069
 10
59.5789
 20
-4.1854
 10
59.5947
 20
-4.29218
 10
59.6
 20
-4.4
 10
59.5947
 20
-4.50782
 10
59.5789
 20
-4.6146
 10
59.5526
 20
-4.71931
 10
59.5163
 20
-4.82095
 10
59.4701
 20
-4.91854
 10
59.4146
 20
-5.01113
 10
59.3503
 20
-5.09783
 10
59.2778
 20
-5.17782
 10
59.1978
 20
-5.25031
 10
59.1111
 20
-5.31462
 10
59.0185
 20
-5.37011
 10
58.921
 20
-5.41627
 10
58.8193
 20
-5.45263
 10
58.7146
 20
-5.47886
 10
58.6078
 20
-5.4947
 10
58.5
 20
-5.5
  0
ENDSEC
  0
EOF
