<svg xmlns="http://www.w3.org/2000/svg" width="1323" height="1027" viewBox="0 0 1323 1027">
<rect width="100%" height="100%" fill="#f4f1ea"/>
<polygon points="1123.6,636.4 971.2,636.4 971.2,484.0 1123.6,484.0" fill="#2f7d4e" stroke="#1c4a2e" stroke-width="1"/>
<polygon points="1103.4,616.2 991.4,616.2 991.4,504.2 1103.4,504.2" fill="none" stroke="#6fbf8e" stroke-width="0.8" stroke-dasharray="3,2"/>
<polygon points="1091.0,582.6 1003.8,582.6 1003.8,537.8 1091.0,537.8" fill="#1c4a2e"/>
<circle cx="987.6" cy="546.0" r="4.8" fill="#e8c547"/>
<circle cx="987.6" cy="535.8" r="4.8" fill="#e8c547"/>
<circle cx="987.6" cy="525.7" r="4.8" fill="#e8c547"/>
<circle cx="987.6" cy="515.5" r="4.8" fill="#e8c547"/>
<circle cx="1107.3" cy="546.0" r="4.8" fill="#e8c547"/>
<circle cx="1107.3" cy="535.8" r="4.8" fill="#e8c547"/>
<circle cx="1107.3" cy="525.7" r="4.8" fill="#e8c547"/>
<circle cx="1107.3" cy="515.5" r="4.8" fill="#e8c547"/>
<circle cx="1051.4" cy="497.2" r="4.8" fill="#e8c547"/>
<circle cx="1041.3" cy="497.2" r="4.8" fill="#e8c547"/>
<circle cx="1031.1" cy="497.2" r="4.8" fill="#e8c547"/>
<circle cx="1020.9" cy="497.2" r="4.8" fill="#e8c547"/>
<circle cx="1051.4" cy="625.0" r="4.8" fill="#e8c547"/>
<circle cx="1041.3" cy="625.0" r="4.8" fill="#e8c547"/>
<circle cx="1031.1" cy="625.0" r="4.8" fill="#e8c547"/>
<circle cx="1020.9" cy="625.0" r="4.8" fill="#e8c547"/>
<circle cx="1077.5" cy="497.2" r="4.8" fill="#e8c547"/>
<circle cx="1077.5" cy="625.0" r="4.8" fill="#e8c547"/>
<polygon points="1123.6,484.0 971.2,484.0 971.2,331.6 1123.6,331.6" fill="#2f7d4e" stroke="#1c4a2e" stroke-width="1"/>
<polygon points="1103.4,463.8 991.4,463.8 991.4,351.8 1103.4,351.8" fill="none" stroke="#6fbf8e" stroke-width="0.8" stroke-dasharray="3,2"/>
<polygon points="1091.0,430.2 1003.8,430.2 1003.8,385.4 1091.0,385.4" fill="#1c4a2e"/>
<circle cx="987.6" cy="393.6" r="4.8" fill="#e8c547"/>
<circle cx="987.6" cy="383.4" r="4.8" fill="#e8c547"/>
<circle cx="987.6" cy="373.3" r="4.8" fill="#e8c547"/>
<circle cx="987.6" cy="363.1" r="4.8" fill="#e8c547"/>
<circle cx="1107.3" cy="393.6" r="4.8" fill="#e8c547"/>
<circle cx="1107.3" cy="383.4" r="4.8" fill="#e8c547"/>
<circle cx="1107.3" cy="373.3" r="4.8" fill="#e8c547"/>
<circle cx="1107.3" cy="363.1" r="4.8" fill="#e8c547"/>
<circle cx="1051.4" cy="344.8" r="4.8" fill="#e8c547"/>
<circle cx="1041.3" cy="344.8" r="4.8" fill="#e8c547"/>
<circle cx="1031.1" cy="344.8" r="4.8" fill="#e8c547"/>
<circle cx="1020.9" cy="344.8" r="4.8" fill="#e8c547"/>
<circle cx="1051.4" cy="472.6" r="4.8" fill="#e8c547"/>
<circle cx="1041.3" cy="472.6" r="4.8" fill="#e8c547"/>
<circle cx="1031.1" cy="472.6" r="4.8" fill="#e8c547"/>
<circle cx="1020.9" cy="472.6" r="4.8" fill="#e8c547"/>
<circle cx="1077.5" cy="344.8" r="4.8" fill="#e8c547"/>
<circle cx="1077.5" cy="472.6" r="4.8" fill="#e8c547"/>
<polygon points="1123.6,331.6 971.2,331.6 971.2,179.2 1123.6,179.2" fill="#2f7d4e" stroke="#1c4a2e" stroke-width="1"/>
<polygon points="1103.4,311.4 991.4,311.4 991.4,199.4 1103.4,199.4" fill="none" stroke="#6fbf8e" stroke-width="0.8" stroke-dasharray="3,2"/>
<polygon points="1091.0,277.8 1003.8,277.8 1003.8,233.0 1091.0,233.0" fill="#1c4a2e"/>
<circle cx="987.6" cy="241.2" r="4.8" fill="#e8c547"/>
<circle cx="987.6" cy="231.0" r="4.8" fill="#e8c547"/>
<circle cx="987.6" cy="220.9" r="4.8" fill="#e8c547"/>
<circle cx="987.6" cy="210.7" r="4.8" fill="#e8c547"/>
<circle cx="1107.3" cy="241.2" r="4.8" fill="#e8c547"/>
<circle cx="1107.3" cy="231.0" r="4.8" fill="#e8c547"/>
<circle cx="1107.3" cy="220.9" r="4.8" fill="#e8c547"/>
<circle cx="1107.3" cy="210.7" r="4.8" fill="#e8c547"/>
<circle cx="1051.4" cy="192.4" r="4.8" fill="#e8c547"/>
<circle cx="1041.3" cy="192.4" r="4.8" fill="#e8c547"/>
<circle cx="1031.1" cy="192.4" r="4.8" fill="#e8c547"/>
<circle cx="1020.9" cy="192.4" r="4.8" fill="#e8c547"/>
<circle cx="1051.4" cy="320.2" r="4.8" fill="#e8c547"/>
<circle cx="1041.3" cy="320.2" r="4.8" fill="#e8c547"/>
<circle cx="1031.1" cy="320.2" r="4.8" fill="#e8c547"/>
<circle cx="1020.9" cy="320.2" r="4.8" fill="#e8c547"/>
<circle cx="1077.5" cy="192.4" r="4.8" fill="#e8c547"/>
<circle cx="1077.5" cy="320.2" r="4.8" fill="#e8c547"/>
<polygon points="971.2,556.4 818.8,556.4 818.8,404.0 971.2,404.0" fill="#2f7d4e" stroke="#1c4a2e" stroke-width="1"/>
<polygon points="951.0,536.2 839.0,536.2 839.0,424.2 951.0,424.2" fill="none" stroke="#6fbf8e" stroke-width="0.8" stroke-dasharray="3,2"/>
<polygon points="938.6,502.6 851.4,502.6 851.4,457.8 938.6,457.8" fill="#1c4a2e"/>
<circle cx="835.2" cy="466.0" r="4.8" fill="#e8c547"/>
<circle cx="835.2" cy="455.8" r="4.8" fill="#e8c547"/>
<circle cx="835.2" cy="445.7" r="4.8" fill="#e8c547"/>
<circle cx="835.2" cy="435.5" r="4.8" fill="#e8c547"/>
<circle cx="954.9" cy="466.0" r="4.8" fill="#e8c547"/>
<circle cx="954.9" cy="455.8" r="4.8" fill="#e8c547"/>
<circle cx="954.9" cy="445.7" r="4.8" fill="#e8c547"/>
<circle cx="954.9" cy="435.5" r="4.8" fill="#e8c547"/>
<circle cx="899.0" cy="417.2" r="4.8" fill="#e8c547"/>
<circle cx="888.9" cy="417.2" r="4.8" fill="#e8c547"/>
<circle cx="878.7" cy="417.2" r="4.8" fill="#e8c547"/>
<circle cx="868.5" cy="417.2" r="4.8" fill="#e8c547"/>
<circle cx="899.0" cy="545.0" r="4.8" fill="#e8c547"/>
<circle cx="888.9" cy="545.0" r="4.8" fill="#e8c547"/>
<circle cx="878.7" cy="545.0" r="4.8" fill="#e8c547"/>
<circle cx="868.5" cy="545.0" r="4.8" fill="#e8c547"/>
<circle cx="925.1" cy="417.2" r="4.8" fill="#e8c547"/>
<circle cx="925.1" cy="545.0" r="4.8" fill="#e8c547"/>
<polygon points="971.2,404.0 818.8,404.0 818.8,251.6 971.2,251.6" fill="#2f7d4e" stroke="#1c4a2e" stroke-width="1"/>
<polygon points="951.0,383.8 839.0,383.8 839.0,271.8 951.0,271.8" fill="none" stroke="#6fbf8e" stroke-width="0.8" stroke-dasharray="3,2"/>
<polygon points="938.6,350.2 851.4,350.2 851.4,305.4 938.6,305.4" fill="#1c4a2e"/>
<circle cx="835.2" cy="313.6" r="4.8" fill="#e8c547"/>
<circle cx="835.2" cy="303.4" r="4.8" fill="#e8c547"/>
<circle cx="835.2" cy="293.3" r="4.8" fill="#e8c547"/>
<circle cx="835.2" cy="283.1" r="4.8" fill="#e8c547"/>
<circle cx="954.9" cy="313.6" r="4.8" fill="#e8c547"/>
<circle cx="954.9" cy="303.4" r="4.8" fill="#e8c547"/>
<circle cx="954.9" cy="293.3" r="4.8" fill="#e8c547"/>
<circle cx="954.9" cy="283.1" r="4.8" fill="#e8c547"/>
<circle cx="899.0" cy="264.8" r="4.8" fill="#e8c547"/>
<circle cx="888.9" cy="264.8" r="4.8" fill="#e8c547"/>
<circle cx="878.7" cy="264.8" r="4.8" fill="#e8c547"/>
<circle cx="868.5" cy="264.8" r="4.8" fill="#e8c547"/>
<circle cx="899.0" cy="392.6" r="4.8" fill="#e8c547"/>
<circle cx="888.9" cy="392.6" r="4.8" fill="#e8c547"/>
<circle cx="878.7" cy="392.6" r="4.8" fill="#e8c547"/>
<circle cx="868.5" cy="392.6" r="4.8" fill="#e8c547"/>
<circle cx="925.1" cy="264.8" r="4.8" fill="#e8c547"/>
<circle cx="925.1" cy="392.6" r="4.8" fill="#e8c547"/>
<polygon points="971.2,251.6 818.8,251.6 818.8,99.2 971.2,99.2" fill="#2f7d4e" stroke="#1c4a2e" stroke-width="1"/>
<polygon points="951.0,231.4 839.0,231.4 839.0,119.4 951.0,119.4" fill="none" stroke="#6fbf8e" stroke-width="0.8" stroke-dasharray="3,2"/>
<polygon points="938.6,197.8 851.4,197.8 851.4,153.0 938.6,153.0" fill="#1c4a2e"/>
<circle cx="835.2" cy="161.2" r="4.8" fill="#e8c547"/>
<circle cx="835.2" cy="151.0" r="4.8" fill="#e8c547"/>
<circle cx="835.2" cy="140.9" r="4.8" fill="#e8c547"/>
<circle cx="835.2" cy="130.7" r="4.8" fill="#e8c547"/>
<circle cx="954.9" cy="161.2" r="4.8" fill="#e8c547"/>
<circle cx="954.9" cy="151.0" r="4.8" fill="#e8c547"/>
<circle cx="954.9" cy="140.9" r="4.8" fill="#e8c547"/>
<circle cx="954.9" cy="130.7" r="4.8" fill="#e8c547"/>
<circle cx="899.0" cy="112.4" r="4.8" fill="#e8c547"/>
<circle cx="888.9" cy="112.4" r="4.8" fill="#e8c547"/>
<circle cx="878.7" cy="112.4" r="4.8" fill="#e8c547"/>
<circle cx="868.5" cy="112.4" r="4.8" fill="#e8c547"/>
<circle cx="899.0" cy="240.2" r="4.8" fill="#e8c547"/>
<circle cx="888.9" cy="240.2" r="4.8" fill="#e8c547"/>
<circle cx="878.7" cy="240.2" r="4.8" fill="#e8c547"/>
<circle cx="868.5" cy="240.2" r="4.8" fill="#e8c547"/>
<circle cx="925.1" cy="112.4" r="4.8" fill="#e8c547"/>
<circle cx="925.1" cy="240.2" r="4.8" fill="#e8c547"/>
<polygon points="818.8,505.2 666.4,505.2 666.4,352.8 818.8,352.8" fill="#2f7d4e" stroke="#1c4a2e" stroke-width="1"/>
<polygon points="798.6,485.0 686.6,485.0 686.6,373.0 798.6,373.0" fill="none" stroke="#6fbf8e" stroke-width="0.8" stroke-dasharray="3,2"/>
<polygon points="786.2,451.4 699.0,451.4 699.0,406.6 786.2,406.6" fill="#1c4a2e"/>
<circle cx="682.8" cy="414.8" r="4.8" fill="#e8c547"/>
<circle cx="682.8" cy="404.6" r="4.8" fill="#e8c547"/>
<circle cx="682.8" cy="394.5" r="4.8" fill="#e8c547"/>
<circle cx="682.8" cy="384.3" r="4.8" fill="#e8c547"/>
<circle cx="802.5" cy="414.8" r="4.8" fill="#e8c547"/>
<circle cx="802.5" cy="404.6" r="4.8" fill="#e8c547"/>
<circle cx="802.5" cy="394.5" r="4.8" fill="#e8c547"/>
<circle cx="802.5" cy="384.3" r="4.8" fill="#e8c547"/>
<circle cx="746.6" cy="366.0" r="4.8" fill="#e8c547"/>
<circle cx="736.5" cy="366.0" r="4.8" fill="#e8c547"/>
<circle cx="726.3" cy="366.0" r="4.8" fill="#e8c547"/>
<circle cx="716.1" cy="366.0" r="4.8" fill="#e8c547"/>
<circle cx="746.6" cy="493.8" r="4.8" fill="#e8c547"/>
<circle cx="736.5" cy="493.8" r="4.8" fill="#e8c547"/>
<circle cx="726.3" cy="493.8" r="4.8" fill="#e8c547"/>
<circle cx="716.1" cy="493.8" r="4.8" fill="#e8c547"/>
<circle cx="772.7" cy="366.0" r="4.8" fill="#e8c547"/>
<circle cx="772.7" cy="493.8" r="4.8" fill="#e8c547"/>
<polygon points="818.8,352.8 666.4,352.8 666.4,200.4 818.8,200.4" fill="#2f7d4e" stroke="#1c4a2e" stroke-width="1"/>
<polygon points="798.6,332.6 686.6,332.6 686.6,220.6 798.6,220.6" fill="none" stroke="#6fbf8e" stroke-width="0.8" stroke-dasharray="3,2"/>
<polygon points="786.2,299.0 699.0,299.0 699.0,254.2 786.2,254.2" fill="#1c4a2e"/>
<circle cx="682.8" cy="262.4" r="4.8" fill="#e8c547"/>
<circle cx="682.8" cy="252.2" r="4.8" fill="#e8c547"/>
<circle cx="682.8" cy="242.1" r="4.8" fill="#e8c547"/>
<circle cx="682.8" cy="231.9" r="4.8" fill="#e8c547"/>
<circle cx="802.5" cy="262.4" r="4.8" fill="#e8c547"/>
<circle cx="802.5" cy="252.2" r="4.8" fill="#e8c547"/>
<circle cx="802.5" cy="242.1" r="4.8" fill="#e8c547"/>
<circle cx="802.5" cy="231.9" r="4.8" fill="#e8c547"/>
<circle cx="746.6" cy="213.6" r="4.8" fill="#e8c547"/>
<circle cx="736.5" cy="213.6" r="4.8" fill="#e8c547"/>
<circle cx="726.3" cy="213.6" r="4.8" fill="#e8c547"/>
<circle cx="716.1" cy="213.6" r="4.8" fill="#e8c547"/>
<circle cx="746.6" cy="341.4" r="4.8" fill="#e8c547"/>
<circle cx="736.5" cy="341.4" r="4.8" fill="#e8c547"/>
<circle cx="726.3" cy="341.4" r="4.8" fill="#e8c547"/>
<circle cx="716.1" cy="341.4" r="4.8" fill="#e8c547"/>
<circle cx="772.7" cy="213.6" r="4.8" fill="#e8c547"/>
<circle cx="772.7" cy="341.4" r="4.8" fill="#e8c547"/>
<polygon points="818.8,200.4 666.4,200.4 666.4,48.0 818.8,48.0" fill="#2f7d4e" stroke="#1c4a2e" stroke-width="1"/>
<polygon points="798.6,180.2 686.6,180.2 686.6,68.2 798.6,68.2" fill="none" stroke="#6fbf8e" stroke-width="0.8" stroke-dasharray="3,2"/>
<polygon points="786.2,146.6 699.0,146.6 699.0,101.8 786.2,101.8" fill="#1c4a2e"/>
<circle cx="682.8" cy="110.0" r="4.8" fill="#e8c547"/>
<circle cx="682.8" cy="99.8" r="4.8" fill="#e8c547"/>
<circle cx="682.8" cy="89.7" r="4.8" fill="#e8c547"/>
<circle cx="682.8" cy="79.5" r="4.8" fill="#e8c547"/>
<circle cx="802.5" cy="110.0" r="4.8" fill="#e8c547"/>
<circle cx="802.5" cy="99.8" r="4.8" fill="#e8c547"/>
<circle cx="802.5" cy="89.7" r="4.8" fill="#e8c547"/>
<circle cx="802.5" cy="79.5" r="4.8" fill="#e8c547"/>
<circle cx="746.6" cy="61.2" r="4.8" fill="#e8c547"/>
<circle cx="736.5" cy="61.2" r="4.8" fill="#e8c547"/>
<circle cx="726.3" cy="61.2" r="4.8" fill="#e8c547"/>
<circle cx="716.1" cy="61.2" r="4.8" fill="#e8c547"/>
<circle cx="746.6" cy="189.0" r="4.8" fill="#e8c547"/>
<circle cx="736.5" cy="189.0" r="4.8" fill="#e8c547"/>
<circle cx="726.3" cy="189.0" r="4.8" fill="#e8c547"/>
<circle cx="716.1" cy="189.0" r="4.8" fill="#e8c547"/>
<circle cx="772.7" cy="61.2" r="4.8" fill="#e8c547"/>
<circle cx="772.7" cy="189.0" r="4.8" fill="#e8c547"/>
<polygon points="666.4,556.4 514.0,556.4 514.0,404.0 666.4,404.0" fill="#2f7d4e" stroke="#1c4a2e" stroke-width="1"/>
<polygon points="646.2,536.2 534.2,536.2 534.2,424.2 646.2,424.2" fill="none" stroke="#6fbf8e" stroke-width="0.8" stroke-dasharray="3,2"/>
<polygon points="633.8,502.6 546.6,502.6 546.6,457.8 633.8,457.8" fill="#1c4a2e"/>
<circle cx="530.4" cy="466.0" r="4.8" fill="#e8c547"/>
<circle cx="530.4" cy="455.8" r="4.8" fill="#e8c547"/>
<circle cx="530.4" cy="445.7" r="4.8" fill="#e8c547"/>
<circle cx="530.4" cy="435.5" r="4.8" fill="#e8c547"/>
<circle cx="650.1" cy="466.0" r="4.8" fill="#e8c547"/>
<circle cx="650.1" cy="455.8" r="4.8" fill="#e8c547"/>
<circle cx="650.1" cy="445.7" r="4.8" fill="#e8c547"/>
<circle cx="650.1" cy="435.5" r="4.8" fill="#e8c547"/>
<circle cx="594.2" cy="417.2" r="4.8" fill="#e8c547"/>
<circle cx="584.1" cy="417.2" r="4.8" fill="#e8c547"/>
<circle cx="573.9" cy="417.2" r="4.8" fill="#e8c547"/>
<circle cx="563.7" cy="417.2" r="4.8" fill="#e8c547"/>
<circle cx="594.2" cy="545.0" r="4.8" fill="#e8c547"/>
<circle cx="584.1" cy="545.0" r="4.8" fill="#e8c547"/>
<circle cx="573.9" cy="545.0" r="4.8" fill="#e8c547"/>
<circle cx="563.7" cy="545.0" r="4.8" fill="#e8c547"/>
<circle cx="620.3" cy="417.2" r="4.8" fill="#e8c547"/>
<circle cx="620.3" cy="545.0" r="4.8" fill="#e8c547"/>
<polygon points="666.4,404.0 514.0,404.0 514.0,251.6 666.4,251.6" fill="#2f7d4e" stroke="#1c4a2e" stroke-width="1"/>
<polygon points="646.2,383.8 534.2,383.8 534.2,271.8 646.2,271.8" fill="none" stroke="#6fbf8e" stroke-width="0.8" stroke-dasharray="3,2"/>
<polygon points="633.8,350.2 546.6,350.2 546.6,305.4 633.8,305.4" fill="#1c4a2e"/>
<circle cx="530.4" cy="313.6" r="4.8" fill="#e8c547"/>
<circle cx="530.4" cy="303.4" r="4.8" fill="#e8c547"/>
<circle cx="530.4" cy="293.3" r="4.8" fill="#e8c547"/>
<circle cx="530.4" cy="283.1" r="4.8" fill="#e8c547"/>
<circle cx="650.1" cy="313.6" r="4.8" fill="#e8c547"/>
<circle cx="650.1" cy="303.4" r="4.8" fill="#e8c547"/>
<circle cx="650.1" cy="293.3" r="4.8" fill="#e8c547"/>
<circle cx="650.1" cy="283.1" r="4.8" fill="#e8c547"/>
<circle cx="594.2" cy="264.8" r="4.8" fill="#e8c547"/>
<circle cx="584.1" cy="264.8" r="4.8" fill="#e8c547"/>
<circle cx="573.9" cy="264.8" r="4.8" fill="#e8c547"/>
<circle cx="563.7" cy="264.8" r="4.8" fill="#e8c547"/>
<circle cx="594.2" cy="392.6" r="4.8" fill="#e8c547"/>
<circle cx="584.1" cy="392.6" r="4.8" fill="#e8c547"/>
<circle cx="573.9" cy="392.6" r="4.8" fill="#e8c547"/>
<circle cx="563.7" cy="392.6" r="4.8" fill="#e8c547"/>
<circle cx="620.3" cy="264.8" r="4.8" fill="#e8c547"/>
<circle cx="620.3" cy="392.6" r="4.8" fill="#e8c547"/>
<polygon points="666.4,251.6 514.0,251.6 514.0,99.2 666.4,99.2" fill="#2f7d4e" stroke="#1c4a2e" stroke-width="1"/>
<polygon points="646.2,231.4 534.2,231.4 534.2,119.4 646.2,119.4" fill="none" stroke="#6fbf8e" stroke-width="0.8" stroke-dasharray="3,2"/>
<polygon points="633.8,197.8 546.6,197.8 546.6,153.0 633.8,153.0" fill="#1c4a2e"/>
<circle cx="530.4" cy="161.2" r="4.8" fill="#e8c547"/>
<circle cx="530.4" cy="151.0" r="4.8" fill="#e8c547"/>
<circle cx="530.4" cy="140.9" r="4.8" fill="#e8c547"/>
<circle cx="530.4" cy="130.7" r="4.8" fill="#e8c547"/>
<circle cx="650.1" cy="161.2" r="4.8" fill="#e8c547"/>
<circle cx="650.1" cy="151.0" r="4.8" fill="#e8c547"/>
<circle cx="650.1" cy="140.9" r="4.8" fill="#e8c547"/>
<circle cx="650.1" cy="130.7" r="4.8" fill="#e8c547"/>
<circle cx="594.2" cy="112.4" r="4.8" fill="#e8c547"/>
<circle cx="584.1" cy="112.4" r="4.8" fill="#e8c547"/>
<circle cx="573.9" cy="112.4" r="4.8" fill="#e8c547"/>
<circle cx="563.7" cy="112.4" r="4.8" fill="#e8c547"/>
<circle cx="594.2" cy="240.2" r="4.8" fill="#e8c547"/>
<circle cx="584.1" cy="240.2" r="4.8" fill="#e8c547"/>
<circle cx="573.9" cy="240.2" r="4.8" fill="#e8c547"/>
<circle cx="563.7" cy="240.2" r="4.8" fill="#e8c547"/>
<circle cx="620.3" cy="112.4" r="4.8" fill="#e8c547"/>
<circle cx="620.3" cy="240.2" r="4.8" fill="#e8c547"/>
<polygon points="514.0,576.4 361.6,576.4 361.6,424.0 514.0,424.0" fill="#2f7d4e" stroke="#1c4a2e" stroke-width="1"/>
<polygon points="493.8,556.2 381.8,556.2 381.8,444.2 493.8,444.2" fill="none" stroke="#6fbf8e" stroke-width="0.8" stroke-dasharray="3,2"/>
<polygon points="481.4,522.6 394.2,522.6 394.2,477.8 481.4,477.8" fill="#1c4a2e"/>
<circle cx="378.0" cy="486.0" r="4.8" fill="#e8c547"/>
<circle cx="378.0" cy="475.8" r="4.8" fill="#e8c547"/>
<circle cx="378.0" cy="465.7" r="4.8" fill="#e8c547"/>
<circle cx="378.0" cy="455.5" r="4.8" fill="#e8c547"/>
<circle cx="497.7" cy="486.0" r="4.8" fill="#e8c547"/>
<circle cx="497.7" cy="475.8" r="4.8" fill="#e8c547"/>
<circle cx="497.7" cy="465.7" r="4.8" fill="#e8c547"/>
<circle cx="497.7" cy="455.5" r="4.8" fill="#e8c547"/>
<circle cx="441.8" cy="437.2" r="4.8" fill="#e8c547"/>
<circle cx="431.7" cy="437.2" r="4.8" fill="#e8c547"/>
<circle cx="421.5" cy="437.2" r="4.8" fill="#e8c547"/>
<circle cx="411.3" cy="437.2" r="4.8" fill="#e8c547"/>
<circle cx="441.8" cy="565.0" r="4.8" fill="#e8c547"/>
<circle cx="431.7" cy="565.0" r="4.8" fill="#e8c547"/>
<circle cx="421.5" cy="565.0" r="4.8" fill="#e8c547"/>
<circle cx="411.3" cy="565.0" r="4.8" fill="#e8c547"/>
<circle cx="467.9" cy="437.2" r="4.8" fill="#e8c547"/>
<circle cx="467.9" cy="565.0" r="4.8" fill="#e8c547"/>
<polygon points="514.0,424.0 361.6,424.0 361.6,271.6 514.0,271.6" fill="#2f7d4e" stroke="#1c4a2e" stroke-width="1"/>
<polygon points="493.8,403.8 381.8,403.8 381.8,291.8 493.8,291.8" fill="none" stroke="#6fbf8e" stroke-width="0.8" stroke-dasharray="3,2"/>
<polygon points="481.4,370.2 394.2,370.2 394.2,325.4 481.4,325.4" fill="#1c4a2e"/>
<circle cx="378.0" cy="333.6" r="4.8" fill="#e8c547"/>
<circle cx="378.0" cy="323.4" r="4.8" fill="#e8c547"/>
<circle cx="378.0" cy="313.3" r="4.8" fill="#e8c547"/>
<circle cx="378.0" cy="303.1" r="4.8" fill="#e8c547"/>
<circle cx="497.7" cy="333.6" r="4.8" fill="#e8c547"/>
<circle cx="497.7" cy="323.4" r="4.8" fill="#e8c547"/>
<circle cx="497.7" cy="313.3" r="4.8" fill="#e8c547"/>
<circle cx="497.7" cy="303.1" r="4.8" fill="#e8c547"/>
<circle cx="441.8" cy="284.8" r="4.8" fill="#e8c547"/>
<circle cx="431.7" cy="284.8" r="4.8" fill="#e8c547"/>
<circle cx="421.5" cy="284.8" r="4.8" fill="#e8c547"/>
<circle cx="411.3" cy="284.8" r="4.8" fill="#e8c547"/>
<circle cx="441.8" cy="412.6" r="4.8" fill="#e8c547"/>
<circle cx="431.7" cy="412.6" r="4.8" fill="#e8c547"/>
<circle cx="421.5" cy="412.6" r="4.8" fill="#e8c547"/>
<circle cx="411.3" cy="412.6" r="4.8" fill="#e8c547"/>
<circle cx="467.9" cy="284.8" r="4.8" fill="#e8c547"/>
<circle cx="467.9" cy="412.6" r="4.8" fill="#e8c547"/>
<polygon points="514.0,271.6 361.6,271.6 361.6,119.2 514.0,119.2" fill="#2f7d4e" stroke="#1c4a2e" stroke-width="1"/>
<polygon points="493.8,251.4 381.8,251.4 381.8,139.4 493.8,139.4" fill="none" stroke="#6fbf8e" stroke-width="0.8" stroke-dasharray="3,2"/>
<polygon points="481.4,217.8 394.2,217.8 394.2,173.0 481.4,173.0" fill="#1c4a2e"/>
<circle cx="378.0" cy="181.2" r="4.8" fill="#e8c547"/>
<circle cx="378.0" cy="171.0" r="4.8" fill="#e8c547"/>
<circle cx="378.0" cy="160.9" r="4.8" fill="#e8c547"/>
<circle cx="378.0" cy="150.7" r="4.8" fill="#e8c547"/>
<circle cx="497.7" cy="181.2" r="4.8" fill="#e8c547"/>
<circle cx="497.7" cy="171.0" r="4.8" fill="#e8c547"/>
<circle cx="497.7" cy="160.9" r="4.8" fill="#e8c547"/>
<circle cx="497.7" cy="150.7" r="4.8" fill="#e8c547"/>
<circle cx="441.8" cy="132.4" r="4.8" fill="#e8c547"/>
<circle cx="431.7" cy="132.4" r="4.8" fill="#e8c547"/>
<circle cx="421.5" cy="132.4" r="4.8" fill="#e8c547"/>
<circle cx="411.3" cy="132.4" r="4.8" fill="#e8c547"/>
<circle cx="441.8" cy="260.2" r="4.8" fill="#e8c547"/>
<circle cx="431.7" cy="260.2" r="4.8" fill="#e8c547"/>
<circle cx="421.5" cy="260.2" r="4.8" fill="#e8c547"/>
<circle cx="411.3" cy="260.2" r="4.8" fill="#e8c547"/>
<circle cx="467.9" cy="132.4" r="4.8" fill="#e8c547"/>
<circle cx="467.9" cy="260.2" r="4.8" fill="#e8c547"/>
<polygon points="1276.0,636.4 1123.6,636.4 1123.6,484.0 1276.0,484.0" fill="#2f7d4e" stroke="#1c4a2e" stroke-width="1"/>
<polygon points="1255.8,616.2 1143.8,616.2 1143.8,504.2 1255.8,504.2" fill="none" stroke="#6fbf8e" stroke-width="0.8" stroke-dasharray="3,2"/>
<polygon points="1243.4,582.6 1156.2,582.6 1156.2,537.8 1243.4,537.8" fill="#1c4a2e"/>
<circle cx="1140.0" cy="546.0" r="4.8" fill="#e8c547"/>
<circle cx="1140.0" cy="535.8" r="4.8" fill="#e8c547"/>
<circle cx="1140.0" cy="525.7" r="4.8" fill="#e8c547"/>
<circle cx="1140.0" cy="515.5" r="4.8" fill="#e8c547"/>
<circle cx="1259.7" cy="546.0" r="4.8" fill="#e8c547"/>
<circle cx="1259.7" cy="535.8" r="4.8" fill="#e8c547"/>
<circle cx="1259.7" cy="525.7" r="4.8" fill="#e8c547"/>
<circle cx="1259.7" cy="515.5" r="4.8" fill="#e8c547"/>
<circle cx="1203.8" cy="497.2" r="4.8" fill="#e8c547"/>
<circle cx="1193.7" cy="497.2" r="4.8" fill="#e8c547"/>
<circle cx="1183.5" cy="497.2" r="4.8" fill="#e8c547"/>
<circle cx="1173.3" cy="497.2" r="4.8" fill="#e8c547"/>
<circle cx="1203.8" cy="625.0" r="4.8" fill="#e8c547"/>
<circle cx="1193.7" cy="625.0" r="4.8" fill="#e8c547"/>
<circle cx="1183.5" cy="625.0" r="4.8" fill="#e8c547"/>
<circle cx="1173.3" cy="625.0" r="4.8" fill="#e8c547"/>
<circle cx="1229.9" cy="497.2" r="4.8" fill="#e8c547"/>
<circle cx="1229.9" cy="625.0" r="4.8" fill="#e8c547"/>
<polygon points="1276.0,484.0 1123.6,484.0 1123.6,331.6 1276.0,331.6" fill="#2f7d4e" stroke="#1c4a2e" stroke-width="1"/>
<polygon points="1255.8,463.8 1143.8,463.8 1143.8,351.8 1255.8,351.8" fill="none" stroke="#6fbf8e" stroke-width="0.8" stroke-dasharray="3,2"/>
<polygon points="1243.4,430.2 1156.2,430.2 1156.2,385.4 1243.4,385.4" fill="#1c4a2e"/>
<circle cx="1140.0" cy="393.6" r="4.8" fill="#e8c547"/>
<circle cx="1140.0" cy="383.4" r="4.8" fill="#e8c547"/>
<circle cx="1140.0" cy="373.3" r="4.8" fill="#e8c547"/>
<circle cx="1140.0" cy="363.1" r="4.8" fill="#e8c547"/>
<circle cx="1259.7" cy="393.6" r="4.8" fill="#e8c547"/>
<circle cx="1259.7" cy="383.4" r="4.8" fill="#e8c547"/>
<circle cx="1259.7" cy="373.3" r="4.8" fill="#e8c547"/>
<circle cx="1259.7" cy="363.1" r="4.8" fill="#e8c547"/>
<circle cx="1203.8" cy="344.8" r="4.8" fill="#e8c547"/>
<circle cx="1193.7" cy="344.8" r="4.8" fill="#e8c547"/>
<circle cx="1183.5" cy="344.8" r="4.8" fill="#e8c547"/>
<circle cx="1173.3" cy="344.8" r="4.8" fill="#e8c547"/>
<circle cx="1203.8" cy="472.6" r="4.8" fill="#e8c547"/>
<circle cx="1193.7" cy="472.6" r="4.8" fill="#e8c547"/>
<circle cx="1183.5" cy="472.6" r="4.8" fill="#e8c547"/>
<circle cx="1173.3" cy="472.6" r="4.8" fill="#e8c547"/>
<circle cx="1229.9" cy="344.8" r="4.8" fill="#e8c547"/>
<circle cx="1229.9" cy="472.6" r="4.8" fill="#e8c547"/>
<polygon points="1276.0,331.6 1123.6,331.6 1123.6,179.2 1276.0,179.2" fill="#2f7d4e" stroke="#1c4a2e" stroke-width="1"/>
<polygon points="1255.8,311.4 1143.8,311.4 1143.8,199.4 1255.8,199.4" fill="none" stroke="#6fbf8e" stroke-width="0.8" stroke-dasharray="3,2"/>
<polygon points="1243.4,277.8 1156.2,277.8 1156.2,233.0 1243.4,233.0" fill="#1c4a2e"/>
<circle cx="1140.0" cy="241.2" r="4.8" fill="#e8c547"/>
<circle cx="1140.0" cy="231.0" r="4.8" fill="#e8c547"/>
<circle cx="1140.0" cy="220.9" r="4.8" fill="#e8c547"/>
<circle cx="1140.0" cy="210.7" r="4.8" fill="#e8c547"/>
<circle cx="1259.7" cy="241.2" r="4.8" fill="#e8c547"/>
<circle cx="1259.7" cy="231.0" r="4.8" fill="#e8c547"/>
<circle cx="1259.7" cy="220.9" r="4.8" fill="#e8c547"/>
<circle cx="1259.7" cy="210.7" r="4.8" fill="#e8c547"/>
<circle cx="1203.8" cy="192.4" r="4.8" fill="#e8c547"/>
<circle cx="1193.7" cy="192.4" r="4.8" fill="#e8c547"/>
<circle cx="1183.5" cy="192.4" r="4.8" fill="#e8c547"/>
<circle cx="1173.3" cy="192.4" r="4.8" fill="#e8c547"/>
<circle cx="1203.8" cy="320.2" r="4.8" fill="#e8c547"/>
<circle cx="1193.7" cy="320.2" r="4.8" fill="#e8c547"/>
<circle cx="1183.5" cy="320.2" r="4.8" fill="#e8c547"/>
<circle cx="1173.3" cy="320.2" r="4.8" fill="#e8c547"/>
<circle cx="1229.9" cy="192.4" r="4.8" fill="#e8c547"/>
<circle cx="1229.9" cy="320.2" r="4.8" fill="#e8c547"/>
<polygon points="413.6,772.5 387.1,622.4 537.2,595.9 563.7,746.0" fill="#2f7d4e" stroke="#1c4a2e" stroke-width="1"/>
<polygon points="430.0,749.1 410.5,638.8 520.8,619.3 540.3,729.6" fill="none" stroke="#6fbf8e" stroke-width="0.8" stroke-dasharray="3,2"/>
<polygon points="460.9,731.0 445.8,645.2 489.9,637.4 505.0,723.2" fill="#1c4a2e"/>
<circle cx="479.0" cy="622.9" r="4.8" fill="#e8c547"/>
<circle cx="489.0" cy="621.1" r="4.8" fill="#e8c547"/>
<circle cx="499.0" cy="619.4" r="4.8" fill="#e8c547"/>
<circle cx="509.0" cy="617.6" r="4.8" fill="#e8c547"/>
<circle cx="499.8" cy="740.7" r="4.8" fill="#e8c547"/>
<circle cx="509.8" cy="739.0" r="4.8" fill="#e8c547"/>
<circle cx="519.8" cy="737.2" r="4.8" fill="#e8c547"/>
<circle cx="529.8" cy="735.5" r="4.8" fill="#e8c547"/>
<circle cx="538.1" cy="677.2" r="4.8" fill="#e8c547"/>
<circle cx="536.3" cy="667.2" r="4.8" fill="#e8c547"/>
<circle cx="534.6" cy="657.2" r="4.8" fill="#e8c547"/>
<circle cx="532.8" cy="647.2" r="4.8" fill="#e8c547"/>
<circle cx="412.3" cy="699.4" r="4.8" fill="#e8c547"/>
<circle cx="410.5" cy="689.4" r="4.8" fill="#e8c547"/>
<circle cx="408.7" cy="679.4" r="4.8" fill="#e8c547"/>
<circle cx="407.0" cy="669.4" r="4.8" fill="#e8c547"/>
<circle cx="542.6" cy="702.9" r="4.8" fill="#e8c547"/>
<circle cx="416.8" cy="725.1" r="4.8" fill="#e8c547"/>
<polygon points="265.3,831.4 208.2,690.1 349.5,633.0 406.6,774.3" fill="#2f7d4e" stroke="#1c4a2e" stroke-width="1"/>
<polygon points="276.4,805.1 234.5,701.3 338.3,659.3 380.3,763.1" fill="none" stroke="#6fbf8e" stroke-width="0.8" stroke-dasharray="3,2"/>
<polygon points="302.9,781.0 270.3,700.2 311.8,683.4 344.5,764.2" fill="#1c4a2e"/>
<circle cx="298.2" cy="671.5" r="4.8" fill="#e8c547"/>
<circle cx="307.6" cy="667.7" r="4.8" fill="#e8c547"/>
<circle cx="317.0" cy="663.9" r="4.8" fill="#e8c547"/>
<circle cx="326.4" cy="660.1" r="4.8" fill="#e8c547"/>
<circle cx="343.0" cy="782.4" r="4.8" fill="#e8c547"/>
<circle cx="352.4" cy="778.6" r="4.8" fill="#e8c547"/>
<circle cx="361.8" cy="774.8" r="4.8" fill="#e8c547"/>
<circle cx="371.3" cy="771.0" r="4.8" fill="#e8c547"/>
<circle cx="367.3" cy="712.4" r="4.8" fill="#e8c547"/>
<circle cx="363.5" cy="702.9" r="4.8" fill="#e8c547"/>
<circle cx="359.7" cy="693.5" r="4.8" fill="#e8c547"/>
<circle cx="355.9" cy="684.1" r="4.8" fill="#e8c547"/>
<circle cx="248.8" cy="760.2" r="4.8" fill="#e8c547"/>
<circle cx="245.0" cy="750.8" r="4.8" fill="#e8c547"/>
<circle cx="241.2" cy="741.4" r="4.8" fill="#e8c547"/>
<circle cx="237.4" cy="732.0" r="4.8" fill="#e8c547"/>
<circle cx="377.0" cy="736.5" r="4.8" fill="#e8c547"/>
<circle cx="258.6" cy="784.4" r="4.8" fill="#e8c547"/>
<polygon points="133.2,919.6 48.0,793.2 174.3,708.0 259.6,834.4" fill="#2f7d4e" stroke="#1c4a2e" stroke-width="1"/>
<polygon points="138.7,891.5 76.0,798.7 168.9,736.1 231.5,828.9" fill="none" stroke="#6fbf8e" stroke-width="0.8" stroke-dasharray="3,2"/>
<polygon points="159.6,862.5 110.8,790.2 148.0,765.1 196.7,837.4" fill="#1c4a2e"/>
<circle cx="132.1" cy="756.3" r="4.8" fill="#e8c547"/>
<circle cx="140.6" cy="750.6" r="4.8" fill="#e8c547"/>
<circle cx="149.0" cy="745.0" r="4.8" fill="#e8c547"/>
<circle cx="157.4" cy="739.3" r="4.8" fill="#e8c547"/>
<circle cx="199.1" cy="855.5" r="4.8" fill="#e8c547"/>
<circle cx="207.5" cy="849.9" r="4.8" fill="#e8c547"/>
<circle cx="215.9" cy="844.2" r="4.8" fill="#e8c547"/>
<circle cx="224.3" cy="838.5" r="4.8" fill="#e8c547"/>
<circle cx="208.2" cy="781.9" r="4.8" fill="#e8c547"/>
<circle cx="202.6" cy="773.5" r="4.8" fill="#e8c547"/>
<circle cx="196.9" cy="765.1" r="4.8" fill="#e8c547"/>
<circle cx="191.2" cy="756.7" r="4.8" fill="#e8c547"/>
<circle cx="102.3" cy="853.4" r="4.8" fill="#e8c547"/>
<circle cx="96.6" cy="845.0" r="4.8" fill="#e8c547"/>
<circle cx="91.0" cy="836.5" r="4.8" fill="#e8c547"/>
<circle cx="85.3" cy="828.1" r="4.8" fill="#e8c547"/>
<circle cx="222.8" cy="803.5" r="4.8" fill="#e8c547"/>
<circle cx="116.9" cy="875.0" r="4.8" fill="#e8c547"/>
<polygon points="1117.4,636.4 1089.4,636.4 1089.4,616.4 1117.4,616.4" fill="#d9534f" fill-opacity="0.85"/>
<polygon points="1117.4,504.0 1089.4,504.0 1089.4,484.0 1117.4,484.0" fill="#d9534f" fill-opacity="0.85"/>
<polygon points="1005.4,636.4 977.4,636.4 977.4,616.4 1005.4,616.4" fill="#d9534f" fill-opacity="0.85"/>
<polygon points="1005.4,504.0 977.4,504.0 977.4,484.0 1005.4,484.0" fill="#d9534f" fill-opacity="0.85"/>
<polygon points="1117.4,484.0 1089.4,484.0 1089.4,464.0 1117.4,464.0" fill="#d9534f" fill-opacity="0.85"/>
<polygon points="1117.4,351.6 1089.4,351.6 1089.4,331.6 1117.4,331.6" fill="#d9534f" fill-opacity="0.85"/>
<polygon points="1005.4,484.0 977.4,484.0 977.4,464.0 1005.4,464.0" fill="#d9534f" fill-opacity="0.85"/>
<polygon points="1005.4,351.6 977.4,351.6 977.4,331.6 1005.4,331.6" fill="#d9534f" fill-opacity="0.85"/>
<polygon points="1117.4,331.6 1089.4,331.6 1089.4,311.6 1117.4,311.6" fill="#d9534f" fill-opacity="0.85"/>
<polygon points="1117.4,199.2 1089.4,199.2 1089.4,179.2 1117.4,179.2" fill="#d9534f" fill-opacity="0.85"/>
<polygon points="1005.4,331.6 977.4,331.6 977.4,311.6 1005.4,311.6" fill="#d9534f" fill-opacity="0.85"/>
<polygon points="1005.4,199.2 977.4,199.2 977.4,179.2 1005.4,179.2" fill="#d9534f" fill-opacity="0.85"/>
<polygon points="965.0,556.4 937.0,556.4 937.0,536.4 965.0,536.4" fill="#d9534f" fill-opacity="0.85"/>
<polygon points="965.0,424.0 937.0,424.0 937.0,404.0 965.0,404.0" fill="#d9534f" fill-opacity="0.85"/>
<polygon points="853.0,556.4 825.0,556.4 825.0,536.4 853.0,536.4" fill="#d9534f" fill-opacity="0.85"/>
<polygon points="853.0,424.0 825.0,424.0 825.0,404.0 853.0,404.0" fill="#d9534f" fill-opacity="0.85"/>
<polygon points="965.0,404.0 937.0,404.0 937.0,384.0 965.0,384.0" fill="#d9534f" fill-opacity="0.85"/>
<polygon points="965.0,271.6 937.0,271.6 937.0,251.6 965.0,251.6" fill="#d9534f" fill-opacity="0.85"/>
<polygon points="853.0,404.0 825.0,404.0 825.0,384.0 853.0,384.0" fill="#d9534f" fill-opacity="0.85"/>
<polygon points="853.0,271.6 825.0,271.6 825.0,251.6 853.0,251.6" fill="#d9534f" fill-opacity="0.85"/>
<polygon points="965.0,251.6 937.0,251.6 937.0,231.6 965.0,231.6" fill="#d9534f" fill-opacity="0.85"/>
<polygon points="965.0,119.2 937.0,119.2 937.0,99.2 965.0,99.2" fill="#d9534f" fill-opacity="0.85"/>
<polygon points="853.0,251.6 825.0,251.6 825.0,231.6 853.0,231.6" fill="#d9534f" fill-opacity="0.85"/>
<polygon points="853.0,119.2 825.0,119.2 825.0,99.2 853.0,99.2" fill="#d9534f" fill-opacity="0.85"/>
<polygon points="812.6,505.2 784.6,505.2 784.6,485.2 812.6,485.2" fill="#d9534f" fill-opacity="0.85"/>
<polygon points="812.6,372.8 784.6,372.8 784.6,352.8 812.6,352.8" fill="#d9534f" fill-opacity="0.85"/>
<polygon points="700.6,505.2 672.6,505.2 672.6,485.2 700.6,485.2" fill="#d9534f" fill-opacity="0.85"/>
<polygon points="700.6,372.8 672.6,372.8 672.6,352.8 700.6,352.8" fill="#d9534f" fill-opacity="0.85"/>
<polygon points="812.6,352.8 784.6,352.8 784.6,332.8 812.6,332.8" fill="#d9534f" fill-opacity="0.85"/>
<polygon points="812.6,220.4 784.6,220.4 784.6,200.4 812.6,200.4" fill="#d9534f" fill-opacity="0.85"/>
<polygon points="700.6,352.8 672.6,352.8 672.6,332.8 700.6,332.8" fill="#d9534f" fill-opacity="0.85"/>
<polygon points="700.6,220.4 672.6,220.4 672.6,200.4 700.6,200.4" fill="#d9534f" fill-opacity="0.85"/>
<polygon points="812.6,200.4 784.6,200.4 784.6,180.4 812.6,180.4" fill="#d9534f" fill-opacity="0.85"/>
<polygon points="812.6,68.0 784.6,68.0 784.6,48.0 812.6,48.0" fill="#d9534f" fill-opacity="0.85"/>
<polygon points="700.6,200.4 672.6,200.4 672.6,180.4 700.6,180.4" fill="#d9534f" fill-opacity="0.85"/>
<polygon points="700.6,68.0 672.6,68.0 672.6,48.0 700.6,48.0" fill="#d9534f" fill-opacity="0.85"/>
<polygon points="660.2,556.4 632.2,556.4 632.2,536.4 660.2,536.4" fill="#d9534f" fill-opacity="0.85"/>
<polygon points="660.2,424.0 632.2,424.0 632.2,404.0 660.2,404.0" fill="#d9534f" fill-opacity="0.85"/>
<polygon points="548.2,556.4 520.2,556.4 520.2,536.4 548.2,536.4" fill="#d9534f" fill-opacity="0.85"/>
<polygon points="548.2,424.0 520.2,424.0 520.2,404.0 548.2,404.0" fill="#d9534f" fill-opacity="0.85"/>
<polygon points="660.2,404.0 632.2,404.0 632.2,384.0 660.2,384.0" fill="#d9534f" fill-opacity="0.85"/>
<polygon points="660.2,271.6 632.2,271.6 632.2,251.6 660.2,251.6" fill="#d9534f" fill-opacity="0.85"/>
<polygon points="548.2,404.0 520.2,404.0 520.2,384.0 548.2,384.0" fill="#d9534f" fill-opacity="0.85"/>
<polygon points="548.2,271.6 520.2,271.6 520.2,251.6 548.2,251.6" fill="#d9534f" fill-opacity="0.85"/>
<polygon points="660.2,251.6 632.2,251.6 632.2,231.6 660.2,231.6" fill="#d9534f" fill-opacity="0.85"/>
<polygon points="660.2,119.2 632.2,119.2 632.2,99.2 660.2,99.2" fill="#d9534f" fill-opacity="0.85"/>
<polygon points="548.2,251.6 520.2,251.6 520.2,231.6 548.2,231.6" fill="#d9534f" fill-opacity="0.85"/>
<polygon points="548.2,119.2 520.2,119.2 520.2,99.2 548.2,99.2" fill="#d9534f" fill-opacity="0.85"/>
<polygon points="507.8,576.4 479.8,576.4 479.8,556.4 507.8,556.4" fill="#d9534f" fill-opacity="0.85"/>
<polygon points="507.8,444.0 479.8,444.0 479.8,424.0 507.8,424.0" fill="#d9534f" fill-opacity="0.85"/>
<polygon points="395.8,576.4 367.8,576.4 367.8,556.4 395.8,556.4" fill="#d9534f" fill-opacity="0.85"/>
<polygon points="395.8,444.0 367.8,444.0 367.8,424.0 395.8,424.0" fill="#d9534f" fill-opacity="0.85"/>
<polygon points="507.8,424.0 479.8,424.0 479.8,404.0 507.8,404.0" fill="#d9534f" fill-opacity="0.85"/>
<polygon points="507.8,291.6 479.8,291.6 479.8,271.6 507.8,271.6" fill="#d9534f" fill-opacity="0.85"/>
<polygon points="395.8,424.0 367.8,424.0 367.8,404.0 395.8,404.0" fill="#d9534f" fill-opacity="0.85"/>
<polygon points="395.8,291.6 367.8,291.6 367.8,271.6 395.8,271.6" fill="#d9534f" fill-opacity="0.85"/>
<polygon points="507.8,271.6 479.8,271.6 479.8,251.6 507.8,251.6" fill="#d9534f" fill-opacity="0.85"/>
<polygon points="507.8,139.2 479.8,139.2 479.8,119.2 507.8,119.2" fill="#d9534f" fill-opacity="0.85"/>
<polygon points="395.8,271.6 367.8,271.6 367.8,251.6 395.8,251.6" fill="#d9534f" fill-opacity="0.85"/>
<polygon points="395.8,139.2 367.8,139.2 367.8,119.2 395.8,119.2" fill="#d9534f" fill-opacity="0.85"/>
<polygon points="1269.8,636.4 1241.8,636.4 1241.8,616.4 1269.8,616.4" fill="#d9534f" fill-opacity="0.85"/>
<polygon points="1269.8,504.0 1241.8,504.0 1241.8,484.0 1269.8,484.0" fill="#d9534f" fill-opacity="0.85"/>
<polygon points="1157.8,636.4 1129.8,636.4 1129.8,616.4 1157.8,616.4" fill="#d9534f" fill-opacity="0.85"/>
<polygon points="1157.8,504.0 1129.8,504.0 1129.8,484.0 1157.8,484.0" fill="#d9534f" fill-opacity="0.85"/>
<polygon points="1269.8,484.0 1241.8,484.0 1241.8,464.0 1269.8,464.0" fill="#d9534f" fill-opacity="0.85"/>
<polygon points="1269.8,351.6 1241.8,351.6 1241.8,331.6 1269.8,331.6" fill="#d9534f" fill-opacity="0.85"/>
<polygon points="1157.8,484.0 1129.8,484.0 1129.8,464.0 1157.8,464.0" fill="#d9534f" fill-opacity="0.85"/>
<polygon points="1157.8,351.6 1129.8,351.6 1129.8,331.6 1157.8,331.6" fill="#d9534f" fill-opacity="0.85"/>
<polygon points="1269.8,331.6 1241.8,331.6 1241.8,311.6 1269.8,311.6" fill="#d9534f" fill-opacity="0.85"/>
<polygon points="1269.8,199.2 1241.8,199.2 1241.8,179.2 1269.8,179.2" fill="#d9534f" fill-opacity="0.85"/>
<polygon points="1157.8,331.6 1129.8,331.6 1129.8,311.6 1157.8,311.6" fill="#d9534f" fill-opacity="0.85"/>
<polygon points="1157.8,199.2 1129.8,199.2 1129.8,179.2 1157.8,179.2" fill="#d9534f" fill-opacity="0.85"/>
<polygon points="412.5,766.4 407.6,738.8 427.3,735.3 432.2,762.9" fill="#d9534f" fill-opacity="0.85"/>
<polygon points="542.9,743.4 538.0,715.8 557.7,712.3 562.6,739.9" fill="#d9534f" fill-opacity="0.85"/>
<polygon points="393.0,656.1 388.2,628.5 407.9,625.0 412.7,652.6" fill="#d9534f" fill-opacity="0.85"/>
<polygon points="523.4,633.1 518.6,605.5 538.3,602.0 543.1,629.6" fill="#d9534f" fill-opacity="0.85"/>
<polygon points="263.0,825.6 252.5,799.7 271.0,792.2 281.5,818.2" fill="#d9534f" fill-opacity="0.85"/>
<polygon points="385.7,776.0 375.2,750.1 393.8,742.6 404.3,768.6" fill="#d9534f" fill-opacity="0.85"/>
<polygon points="221.0,721.8 210.5,695.8 229.1,688.4 239.5,714.3" fill="#d9534f" fill-opacity="0.85"/>
<polygon points="343.8,672.2 333.3,646.2 351.8,638.8 362.3,664.7" fill="#d9534f" fill-opacity="0.85"/>
<polygon points="129.8,914.4 114.1,891.2 130.7,880.0 146.3,903.3" fill="#d9534f" fill-opacity="0.85"/>
<polygon points="239.5,840.4 223.9,817.2 240.4,806.0 256.1,829.2" fill="#d9534f" fill-opacity="0.85"/>
<polygon points="67.1,821.6 51.5,798.4 68.0,787.2 83.7,810.4" fill="#d9534f" fill-opacity="0.85"/>
<polygon points="176.9,747.6 161.2,724.3 177.8,713.2 193.5,736.4" fill="#d9534f" fill-opacity="0.85"/>
<polyline points="1193.7,320.2 1193.7,344.2 1193.7,320.8 1193.7,344.8" fill="none" stroke="#1f77d4" stroke-width="6.4" stroke-linecap="round" stroke-linejoin="round"/>
<polyline points="1193.7,472.6 1193.7,496.6 1193.7,473.2 1193.7,497.2" fill="none" stroke="#1f77d4" stroke-width="6.4" stroke-linecap="round" stroke-linejoin="round"/>
<polyline points="1041.3,320.2 1041.3,344.2 1041.3,320.8 1041.3,344.8" fill="none" stroke="#1f77d4" stroke-width="6.4" stroke-linecap="round" stroke-linejoin="round"/>
<polyline points="1041.3,472.6 1041.3,496.6 1041.3,473.2 1041.3,497.2" fill="none" stroke="#1f77d4" stroke-width="6.4" stroke-linecap="round" stroke-linejoin="round"/>
<polyline points="888.9,240.2 888.9,264.2 888.9,240.8 888.9,264.8" fill="none" stroke="#1f77d4" stroke-width="6.4" stroke-linecap="round" stroke-linejoin="round"/>
<polyline points="888.9,392.6 888.9,416.6 888.9,393.2 888.9,417.2" fill="none" stroke="#1f77d4" stroke-width="6.4" stroke-linecap="round" stroke-linejoin="round"/>
<polyline points="736.5,189.0 736.5,213.0 736.5,189.6 736.5,213.6" fill="none" stroke="#1f77d4" stroke-width="6.4" stroke-linecap="round" stroke-linejoin="round"/>
<polyline points="736.5,341.4 736.5,365.4 736.5,342.0 736.5,366.0" fill="none" stroke="#1f77d4" stroke-width="6.4" stroke-linecap="round" stroke-linejoin="round"/>
<polyline points="584.1,240.2 584.1,264.2 584.1,240.8 584.1,264.8" fill="none" stroke="#1f77d4" stroke-width="6.4" stroke-linecap="round" stroke-linejoin="round"/>
<polyline points="584.1,392.6 584.1,416.6 584.1,393.2 584.1,417.2" fill="none" stroke="#1f77d4" stroke-width="6.4" stroke-linecap="round" stroke-linejoin="round"/>
<polyline points="431.7,260.2 431.7,284.2 431.7,260.8 431.7,284.8" fill="none" stroke="#1f77d4" stroke-width="6.4" stroke-linecap="round" stroke-linejoin="round"/>
<polyline points="431.7,412.6 431.7,436.6 431.7,413.2 431.7,437.2" fill="none" stroke="#1f77d4" stroke-width="6.4" stroke-linecap="round" stroke-linejoin="round"/>
<polyline points="1140.0,535.8 1107.3,535.8" fill="none" stroke="#ff7f0e" stroke-width="6.4" stroke-linecap="round" stroke-linejoin="round"/>
<polyline points="1140.0,383.4 1107.3,383.4" fill="none" stroke="#ff7f0e" stroke-width="6.4" stroke-linecap="round" stroke-linejoin="round"/>
<polyline points="1140.0,231.0 1107.3,231.0" fill="none" stroke="#ff7f0e" stroke-width="6.4" stroke-linecap="round" stroke-linejoin="round"/>
<polyline points="987.6,535.8 967.4,504.2 954.9,455.8" fill="none" stroke="#ff7f0e" stroke-width="6.4" stroke-linecap="round" stroke-linejoin="round"/>
<polyline points="987.6,383.4 967.4,352.2 954.9,303.4" fill="none" stroke="#ff7f0e" stroke-width="6.4" stroke-linecap="round" stroke-linejoin="round"/>
<polyline points="987.6,231.0 967.4,200.2 954.9,151.0" fill="none" stroke="#ff7f0e" stroke-width="6.4" stroke-linecap="round" stroke-linejoin="round"/>
<polyline points="835.2,455.8 802.5,404.6" fill="none" stroke="#ff7f0e" stroke-width="6.4" stroke-linecap="round" stroke-linejoin="round"/>
<polyline points="835.2,303.4 802.5,252.2" fill="none" stroke="#ff7f0e" stroke-width="6.4" stroke-linecap="round" stroke-linejoin="round"/>
<polyline points="835.2,151.0 802.5,99.8" fill="none" stroke="#ff7f0e" stroke-width="6.4" stroke-linecap="round" stroke-linejoin="round"/>
<polyline points="682.8,404.6 650.1,455.8" fill="none" stroke="#ff7f0e" stroke-width="6.4" stroke-linecap="round" stroke-linejoin="round"/>
<polyline points="682.8,252.2 650.1,303.4" fill="none" stroke="#ff7f0e" stroke-width="6.4" stroke-linecap="round" stroke-linejoin="round"/>
<polyline points="682.8,99.8 650.1,151.0" fill="none" stroke="#ff7f0e" stroke-width="6.4" stroke-linecap="round" stroke-linejoin="round"/>
<polyline points="530.4,455.8 497.7,475.8" fill="none" stroke="#ff7f0e" stroke-width="6.4" stroke-linecap="round" stroke-linejoin="round"/>
<polyline points="530.4,303.4 497.7,323.4" fill="none" stroke="#ff7f0e" stroke-width="6.4" stroke-linecap="round" stroke-linejoin="round"/>
<polyline points="530.4,151.0 497.7,171.0" fill="none" stroke="#ff7f0e" stroke-width="6.4" stroke-linecap="round" stroke-linejoin="round"/>
<polyline points="489.0,621.1 484.8,597.5 303.4,640.2 298.6,645.4 307.6,667.7" fill="none" stroke="#ff7f0e" stroke-width="6.4" stroke-linecap="round" stroke-linejoin="round"/>
<polyline points="307.6,667.7 298.6,645.4 135.4,720.2 127.1,730.7 140.6,750.6" fill="none" stroke="#ff7f0e" stroke-width="6.4" stroke-linecap="round" stroke-linejoin="round"/>
<polyline points="536.3,667.2 560.0,663.1 736.5,517.8 736.5,493.8" fill="none" stroke="#1f77d4" stroke-width="6.4" stroke-linecap="round" stroke-linejoin="round"/>
<polyline points="363.5,702.9 385.7,693.9 519.4,592.2 584.1,569.0 584.1,545.0" fill="none" stroke="#1f77d4" stroke-width="6.4" stroke-linecap="round" stroke-linejoin="round"/>
<polyline points="202.6,773.5 222.5,760.1 335.4,632.2 431.7,589.0 431.7,565.0" fill="none" stroke="#1f77d4" stroke-width="6.4" stroke-linecap="round" stroke-linejoin="round"/>
<text x="10" y="987" font-family="sans-serif" font-size="14">Underside view (case off, plate upside down). Red = floor pillars (never run a wire over one). Yellow = pads. Blue = column wires, orange = row wires (example matrix).</text>
<text x="10" y="1007" font-family="sans-serif" font-size="14">Leave the pads straight out: column wires along the board centre line, row wires straight across the column gap. Left half shown; the right half is the mirror image.</text>
</svg>